<svg version="1.1" xmlns="http://www.w3.org/2000/svg" viewBox="0 0 79 80" width="79" height="80">
  <!-- svg-source:excalidraw -->
  
  <defs>
    <style>
      @font-face {
        font-family: "Virgil";
        src: url("https://unpkg.com/@excalidraw/excalidraw@0.13.0/dist/excalidraw-assets/Virgil.woff2");
      }
      @font-face {
        font-family: "Cascadia";
        src: url("https://unpkg.com/@excalidraw/excalidraw@0.13.0/dist/excalidraw-assets/Cascadia.woff2");
      }
    </style>
  </defs>
  <rect x="0" y="0" width="79" height="80" fill="#ffffff"></rect><g transform="translate(30 25) rotate(0 7.5 12.5)"><text x="0" y="18" font-family="Virgil, Segoe UI Emoji" font-size="20px" fill="#000000" text-anchor="start" style="white-space: pre;" direction="ltr">A</text></g><g transform="translate(43 47) rotate(0 -3.5 -7)" stroke="none"><path fill="#000000" d="M 0,-2.56 Q 0,-2.56 1.12,-2.58 2.24,-2.60 4.26,-3.74 6.28,-4.88 7.68,-5.36 9.09,-5.84 10.15,-6.30 11.21,-6.76 12.91,-7.84 14.61,-8.92 15.90,-9.72 17.19,-10.53 18.00,-11.33 18.81,-12.13 19.86,-13.57 20.91,-15.00 21.31,-16.29 21.72,-17.58 22.19,-19.05 22.66,-20.52 22.69,-21.92 22.71,-23.32 22.71,-24.58 22.71,-25.83 22.33,-27.01 21.95,-28.19 20.86,-28.95 19.77,-29.72 18.40,-30.67 17.03,-31.62 15.30,-32.49 13.56,-33.36 12.32,-33.51 11.07,-33.65 9.64,-33.70 8.21,-33.75 6.74,-33.75 5.26,-33.75 3.48,-33.21 1.70,-32.67 0.39,-32.44 -0.91,-32.20 -2.86,-31.69 -4.82,-31.17 -5.78,-30.72 -6.74,-30.26 -8.18,-29.90 -9.62,-29.54 -10.85,-29.39 -12.09,-29.24 -13.72,-28.57 -15.36,-27.91 -16.67,-27.63 -17.98,-27.35 -19.13,-26.77 -20.28,-26.19 -21.35,-25.62 -22.41,-25.05 -23.15,-23.76 -23.88,-22.46 -24.71,-21.28 -25.53,-20.10 -26.67,-18.80 -27.81,-17.49 -28.17,-16.21 -28.54,-14.92 -29.34,-14.07 -30.13,-13.22 -29.89,-12.16 -29.65,-11.09 -29.69,-9.79 -29.73,-8.49 -27.90,-6.73 -26.07,-4.96 -25.22,-3.59 -24.36,-2.21 -23.28,-1.17 -22.19,-0.12 -21.16,0.99 -20.13,2.11 -18.78,3.37 -17.43,4.64 -16.70,6.48 -15.97,8.32 -15.65,9.46 -15.32,10.59 -14.67,11.89 -14.02,13.19 -12.93,13.75 -11.85,14.32 -10.66,14.86 -9.47,15.41 -8.38,15.95 -7.30,16.49 -5.96,16.89 -4.62,17.29 -3.36,17.48 -2.10,17.66 -0.90,17.75 0.29,17.84 2.16,18.28 4.02,18.72 5.22,18.86 6.41,19.00 7.63,19.41 8.85,19.83 10.37,19.88 11.89,19.94 13.04,19.91 14.20,19.88 15.51,19.85 16.82,19.82 17.90,19.82 18.98,19.81 21.42,18.34 23.85,16.86 24.38,16.76 24.91,16.66 25.44,16.74 25.98,16.81 26.46,17.05 26.94,17.29 27.32,17.67 27.70,18.05 27.94,18.54 28.18,19.02 28.26,19.55 28.33,20.09 28.23,20.62 28.12,21.15 27.86,21.62 27.59,22.09 27.19,22.45 26.79,22.81 26.29,23.02 25.80,23.23 25.26,23.27 24.72,23.32 24.20,23.19 23.67,23.06 23.22,22.77 22.77,22.47 22.43,22.05 22.09,21.63 21.91,21.13 21.72,20.62 21.71,20.08 21.69,19.54 21.85,19.03 22.01,18.51 22.32,18.07 22.64,17.63 23.08,17.32 23.52,17.01 24.03,16.85 24.55,16.69 25.09,16.71 25.63,16.72 26.13,16.91 26.64,17.09 27.06,17.43 27.48,17.77 27.77,18.23 28.06,18.68 28.19,19.20 28.32,19.73 28.27,20.27 28.23,20.80 28.02,21.30 27.80,21.79 27.44,22.20 27.08,22.60 26.61,22.86 26.14,23.13 26.14,23.13 26.14,23.13 25.12,23.68 24.10,24.24 22.93,24.76 21.76,25.29 20.57,25.73 19.37,26.18 18.09,26.17 16.81,26.16 15.48,26.13 14.15,26.10 12.92,26.04 11.69,25.98 10.05,25.81 8.40,25.64 7.08,25.12 5.76,24.60 4.37,24.47 2.98,24.34 1.47,24.15 -0.02,23.96 -1.35,23.92 -2.68,23.88 -4.65,23.77 -6.63,23.65 -7.68,23.35 -8.74,23.05 -9.89,22.53 -11.03,22.02 -12.42,21.60 -13.81,21.18 -14.90,20.58 -16.00,19.98 -17.28,19.13 -18.55,18.27 -19.15,17.17 -19.75,16.07 -20.68,14.57 -21.60,13.07 -21.96,11.52 -22.33,9.98 -22.53,8.60 -22.73,7.21 -23.98,6.41 -25.24,5.61 -26.64,4.22 -28.04,2.83 -29.16,1.54 -30.28,0.24 -30.88,-0.69 -31.48,-1.63 -32.39,-2.28 -33.30,-2.92 -33.97,-3.79 -34.64,-4.65 -35.48,-7.30 -36.33,-9.95 -36.29,-11.45 -36.26,-12.96 -35.98,-14.45 -35.71,-15.95 -34.65,-17.63 -33.59,-19.31 -32.48,-20.86 -31.38,-22.42 -30.40,-23.87 -29.41,-25.32 -28.49,-26.25 -27.57,-27.17 -26.42,-28.61 -25.27,-30.05 -23.93,-31.10 -22.58,-32.15 -21.47,-32.62 -20.35,-33.08 -18.99,-33.22 -17.64,-33.35 -16.52,-33.82 -15.40,-34.30 -14.07,-34.70 -12.75,-35.09 -10.99,-35.36 -9.23,-35.62 -6.74,-36.49 -4.25,-37.35 -2.35,-37.94 -0.46,-38.53 0.81,-39.01 2.09,-39.50 3.67,-39.86 5.25,-40.23 6.81,-40.20 8.37,-40.18 10.10,-40.08 11.84,-39.98 13.08,-39.82 14.32,-39.65 16.22,-38.74 18.12,-37.82 20.02,-36.93 21.93,-36.04 23.47,-34.97 25.01,-33.89 26.13,-33.00 27.25,-32.10 27.84,-31.20 28.44,-30.29 28.85,-28.04 29.27,-25.79 29.23,-24.40 29.20,-23.01 29.06,-21.60 28.92,-20.19 28.39,-18.66 27.86,-17.14 27.31,-15.63 26.77,-14.12 26.04,-12.47 25.31,-10.82 24.02,-9.26 22.74,-7.70 21.71,-6.82 20.69,-5.94 19.58,-5.69 18.47,-5.43 17.25,-4.54 16.03,-3.65 14.71,-2.71 13.40,-1.77 12.17,-1.24 10.94,-0.72 9.66,-0.23 8.39,0.25 6.59,1.09 4.80,1.94 3.58,2.27 2.35,2.60 1.17,2.58 0,2.56 -0.30,2.53 -0.61,2.49 -0.90,2.38 -1.19,2.27 -1.44,2.09 -1.70,1.92 -1.90,1.69 -2.11,1.45 -2.25,1.18 -2.40,0.91 -2.47,0.61 -2.55,0.30 -2.55,-0.00 -2.55,-0.30 -2.47,-0.61 -2.40,-0.91 -2.25,-1.18 -2.11,-1.45 -1.90,-1.69 -1.70,-1.92 -1.44,-2.09 -1.19,-2.27 -0.90,-2.38 -0.61,-2.49 -0.30,-2.53 0.00,-2.56 0.00,-2.56 L 0,-2.56 Z"></path></g></svg>